# Simple cube OBJ file
v -1.0 -1.0 -1.0
v -1.0 -1.0  1.0
v -1.0  1.0 -1.0
v -1.0  1.0  1.0
v  1.0 -1.0 -1.0
v  1.0 -1.0  1.0
v  1.0  1.0 -1.0
v  1.0  1.0  1.0

vn -1.0  0.0  0.0
vn  1.0  0.0  0.0
vn  0.0 -1.0  0.0
vn  0.0  1.0  0.0
vn  0.0  0.0 -1.0
vn  0.0  0.0  1.0

# Add some texture coordinates
vt 0.0 0.0
vt 1.0 0.0
vt 1.0 1.0
vt 0.0 1.0

# Faces with vertex/texture/normal indices
f 1/1/1 2/2/1 4/3/1 3/4/1
f 5/1/2 7/2/2 8/3/2 6/4/2
f 1/1/3 5/2/3 6/3/3 2/4/3
f 3/1/4 4/2/4 8/3/4 7/4/4
f 1/1/5 3/2/5 7/3/5 5/4/5
f 2/1/6 6/2/6 8/3/6 4/4/6 